<svg t="1746329660683" class="icon" viewBox="0 0 1024 1024" version="1.1" xmlns="http://www.w3.org/2000/svg" p-id="1071" width="26" height="26"><path d="M384 138.666667A245.333333 245.333333 0 0 0 138.666667 384v303.232a32 32 0 0 0 64 0V384A181.333333 181.333333 0 0 1 384 202.666667h299.221333a32 32 0 0 0 0-64H384z" fill="#cfcfcf" p-id="1072"></path><path d="M785.194667 289.834667a1893.205333 1893.205333 0 0 0-418.389334 0 85.802667 85.802667 0 0 0-75.690666 75.093333 1816.789333 1816.789333 0 0 0 0 422.101333 85.76 85.76 0 0 0 75.690666 75.093334c138.282667 15.488 280.106667 15.488 418.389334 0a85.76 85.76 0 0 0 75.690666-75.093334 1816.704 1816.704 0 0 0 0-422.101333 85.802667 85.802667 0 0 0-75.690666-75.093333zM373.930667 353.450667c133.546667-14.933333 270.592-14.933333 404.138666 0a21.76 21.76 0 0 1 19.2 18.944c15.872 135.253333 15.872 271.957333 0 407.210666a21.76 21.76 0 0 1-19.2 18.944c-133.546667 14.933333-270.592 14.933333-404.138666 0a21.802667 21.802667 0 0 1-19.2-18.944c-15.872-135.253333-15.872-271.957333 0-407.210666a21.802667 21.802667 0 0 1 19.2-18.944z" fill="#cfcfcf" p-id="1073"></path></svg>