<svg t="1746329706645" class="icon" viewBox="0 0 1024 1024" version="1.1" xmlns="http://www.w3.org/2000/svg" p-id="1348" width="26" height="26"><path d="M797.013333 425.941333c1.706667 10.581333 3.2 21.162667 4.48 31.786667a17.962667 17.962667 0 0 0 10.368 14.037333c15.146667 7.04 29.44 15.530667 42.837334 25.258667 6.058667 4.437333 14.933333-0.085333 14.336-7.594667a948.522667 948.522667 0 0 0-8.832-73.557333l-2.730667-17.152a113.408 113.408 0 0 0-112-95.530667H390.741333A98.048 98.048 0 0 0 294.528 224H196.778667a114.346667 114.346667 0 0 0-113.493334 100.693333l-11.648 96.853334a1033.813333 1033.813333 0 0 0 9.472 309.034666 112.170667 112.170667 0 0 0 102.314667 91.733334l64.597333 4.608c73.557333 5.248 147.2 7.893333 220.928 7.893333 6.613333 0 10.709333-7.253333 7.68-13.056a254.293333 254.293333 0 0 1-16.128-38.485333 17.92 17.92 0 0 0-16.725333-12.544 3036.586667 3036.586667 0 0 1-191.189333-7.68l-64.597334-4.608a48.128 48.128 0 0 1-43.946666-39.338667 969.813333 969.813333 0 0 1-8.874667-289.962667l11.648-96.853333A50.346667 50.346667 0 0 1 196.693333 288h97.792c18.773333 0 34.005333 15.232 34.005334 34.005333 0 24.96 20.224 45.226667 45.226666 45.226667h371.712c24.32 0 44.970667 17.621333 48.810667 41.6l2.730667 17.109333z" fill="#cfcfcf" p-id="1349"></path><path d="M512 704c0 41.472 13.141333 79.872 35.498667 111.232A191.146667 191.146667 0 0 0 704 896a192 192 0 1 0-192-192z m192 128a127.36 127.36 0 0 1-65.024-17.706667l175.317333-175.317333A128 128 0 0 1 704 832z m-110.293333-62.976l175.317333-175.317333a128 128 0 0 0-175.317333 175.317333z" fill="#cfcfcf" p-id="1350"></path></svg>