<svg width="28" height="28" viewBox="0 0 28 28" xmlns="http://www.w3.org/2000/svg" class="arco-icon index__icon--1DuKy" style="fill: #cfcfcf;font-weight: 400;font-size: 28px;"><path fill-rule="evenodd" clip-rule="evenodd" d="M14.0001 3.61328C14.7702 3.61328 15.53 3.69804 16.2695 3.86454L16.6963 3.96063L18.0272 6.9947L21.304 6.63647L21.6002 6.95912C22.6372 8.08867 23.4153 9.43592 23.8714 10.9073L24 11.322L23.7444 11.6731L22.0501 13.9995L24 16.677L23.8714 17.0917C23.4153 18.5631 22.6372 19.9103 21.6002 21.0399L21.304 21.3625L18.0272 21.0043L16.6963 24.0384L16.2695 24.1345C15.53 24.301 14.7702 24.3857 14.0001 24.3857C13.2298 24.3857 12.4698 24.3009 11.7301 24.1343L11.3033 24.0382L11.1276 23.6376L9.97295 21.0043L6.69619 21.3625L6.39998 21.0399C5.36281 19.9102 4.5847 18.5628 4.12858 17.0912L4 16.6764L4.25571 16.3254L5.94998 13.9995L4 11.3226L4.12858 10.9078C4.5847 9.43624 5.36281 8.0888 6.39998 6.95912L6.69619 6.63647L9.97295 6.99469L11.3033 3.96078L11.7301 3.86466C12.4698 3.69808 13.2298 3.61328 14.0001 3.61328ZM14.0001 9.67002C16.382 9.67002 18.3112 11.6085 18.3112 13.9976C18.3112 16.3868 16.382 18.3252 14.0001 18.3252C11.6182 18.3252 9.68899 16.3868 9.68899 13.9976C9.68899 11.6085 11.6182 9.67002 14.0001 9.67002ZM11.4199 14.0018C11.4199 12.5668 12.576 11.4052 14 11.4052C15.424 11.4052 16.5801 12.5668 16.5801 14.0018C16.5801 15.4367 15.424 16.5983 14 16.5983C12.576 16.5983 11.4199 15.4367 11.4199 14.0018Z"></path></svg>